<svg viewBox="0 0 550 400" xmlns="http://www.w3.org/2000/svg">
  <g>
    <path d="m284,17c0,0 243,308 243,308c0,0 -170,62 -170,62c0,0 -307,-86 -307,-86c0,0 -77,-170 82,-244" opacity="NaN"
      stroke-width="0" stroke="#000" fill="#ffffbf" />
    <path stroke-width="0"
      d="m380,144c-1,0 -3,-1 -6,-1c-2,0 -6.05414,0.43268 -9,1c-5.28799,1.01837 -8.87604,3.34315 -14,5c-3.9231,1.26855 -9.22937,2.33199 -13,4c-3.29733,1.45863 -4.82443,2.09789 -6,4c-0.52573,0.85065 -0.29291,1.29289 -1,2c-2.12131,2.12132 0.69254,5.186 2,7c1.65381,2.29454 5.0769,3.73145 9,5c5.12396,1.65685 11,3 17,3c6,0 12.04468,0.23862 18,-1c4.03671,-0.83958 8.02676,-1.77025 9,-2c2.17624,-0.51375 2.0979,-1.82443 4,-3c0.85065,-0.52573 2.29291,-0.29289 3,-1c0.70709,-0.70711 1,-1 1,-2l1,0"
      stroke="#000" fill="#4892b5" />
    <line stroke="#000" y2="12.99999" x2="281" y1="329" x1="530.00001" stroke-width="10" fill="none" />
    <line stroke="#000" y2="325" x2="532" y1="390" x1="355" stroke-width="10" fill="none" />
    <line stroke="#000" y2="59.00001" x2="133.99999" y1="390" x1="360" stroke-width="10" fill="none" />
    <line stroke="#000" y2="59" x2="128.99999" y1="14" x1="285.99999" stroke-width="10" fill="none" />
    <line stroke="#000" y2="301" x2="49" y1="389" x1="357" stroke-width="10" fill="none" />
    <path d="m134,57c0,0 -163,61 -83,245" opacity="NaN" stroke-width="10" stroke="#000" fill="none" />
    <path stroke="#000" d="m85.94052,173.81904c81.50169,-79.24309 14.13805,31.56292 -1.94052,8.73017" stroke-width="0"
      fill="#4892b5" />
    <path stroke="#000" d="m226,299.14091c75.60544,-43.17248 21.65781,26.71446 0.39378,6.20157" stroke-width="0"
      fill="#4892b5" />
    <path
      d="m190,224c-1,0 -2,0 -3,0c-1,0 -3,1 -5,1c-1,0 -2.07613,1.61731 -3,2c-1.30656,0.5412 -1,2 -2,3c-1,1 -1,3 -1,4c0,3 0,5 0,6c0,3 -0.90211,4.82443 1,6c0.85065,0.52573 2,0 3,1c1,1 2,2 4,2c2,0 4,0 7,0c3,0 5,0 6,0c1,0 2,0 2,-1l0,-1l1,0l0,-1"
      stroke-width="0" stroke="#000" fill="#4892b5" />
    <path
      d="m110,277c0,-1 0.67964,-1.02582 1,-3c0.50655,-3.12143 1.36655,-7.02249 1,-10c-0.50377,-4.09222 -2,-7 -2,-9c0,-1 -0.70711,-2.29291 0,-3c0.70711,-0.70709 1,-1 3,-2c2,-1 5,-1 9,-1c3,0 5,0 6,0c1,0 2.4588,-0.30655 3,1c0.38269,0.92389 1.58578,0.58578 3,2c0.70711,0.70709 2.4588,1.69345 3,3c0.38269,0.92389 1,3 1,4c0,3 0,7 0,11c0,3 -1,6 -2,9l-1,1l-1,2l0,1"
      stroke-width="0" stroke="#000" fill="#4892b5" />
    <path stroke="#000"
      d="m223.04393,75.15377c0.39855,-1.64611 0.79711,-2.19481 0.79711,-2.74351c0,-0.5487 0.30698,-0.56338 0.39855,-1.0974c0.20475,-1.19411 0.70553,-1.11208 0.79711,-1.64611c0.20475,-1.19411 0.79711,-1.0974 1.19566,-1.64611c0.39855,-0.5487 0.67493,-0.80045 1.19566,-1.0974c0.36822,-0.20998 0.79711,0 1.19566,0c1.19566,0 1.99277,0 2.39133,0c1.19566,0 1.99277,0 2.78988,0c0.79711,0 1.99277,0.5487 2.39133,0.5487c0.39855,0 0.70553,0.56338 0.79711,1.0974c0.20475,1.19411 0.99378,2.12817 1.19566,3.84091c0.19153,1.62485 0,3.29221 0,4.38962c0,1.0974 0,1.64611 0,2.19481c0,0.5487 0.28182,1.25811 0,1.64611c-0.28182,0.38799 -0.27638,0.80045 -0.79711,1.0974c-0.36822,0.20998 -0.39855,0.5487 -0.39855,1.0974c0,0.5487 -0.39855,0.5487 -0.79711,1.0974c-0.39855,0.5487 -0.51529,0.70941 -0.79711,1.0974c-0.28182,0.38799 -0.58141,0.92919 -0.79711,1.64611c-0.15252,0.50693 -0.46754,1.5653 -0.79711,2.19481c-0.5211,0.99534 -0.39855,1.64611 -0.39855,2.19481c0,0.5487 0,1.64611 0,2.19481c0,1.0974 0,1.64611 0,2.74351c0,0.5487 -0.15252,1.13917 0,1.64611c0.2157,0.71691 0.58141,0.92919 0.79711,1.64611c0.15252,0.50693 0.39855,1.0974 0.39855,2.19481c0,0.5487 -0.28182,1.25811 0,1.64611c0.28182,0.38799 0.39855,1.0974 0.39855,1.64611c0,0.5487 -0.18286,0.92919 -0.39855,1.64611c-0.30505,1.01387 -0.8661,1.5653 -1.19566,2.19481c-0.5211,0.99534 -0.96405,1.32723 -1.59422,2.19481c-0.63017,0.86758 -1.47204,0.80045 -1.99277,1.0974c-1.10465,0.62994 -1.99277,0.5487 -2.39133,0.5487c-1.19566,0 -1.59422,0.5487 -2.39133,0.5487c-0.79711,0 -1.19566,0 -1.59422,0c-0.79711,0 -1.2698,0.1687 -1.99277,-0.5487c-0.91449,-0.90745 -1.47683,-1.83606 -2.39133,-2.74351c-0.72298,-0.7174 -1.65439,-0.78719 -2.39133,-2.19481c-0.46608,-0.89026 -0.67457,-1.74817 -1.19566,-2.74351c-0.32957,-0.62951 -0.97997,-1.47789 -1.19566,-2.19481c-0.15252,-0.50693 -0.1938,-1.00069 -0.39855,-2.19481c-0.09157,-0.53402 0,-1.0974 0,-2.19481c0,-0.5487 0,-1.64611 0,-2.74351c0,-0.5487 -0.18314,-1.67546 0,-2.74351c0.20475,-1.19411 0.39855,-2.74351 0.79711,-3.84091c0.39855,-1.0974 0.79711,-2.19481 1.59422,-3.84091l0.39855,-1.64611l0.79711,-1.64611l0.79711,-1.64611"
      stroke-width="0" fill="#4892b5" />
    <path stroke="#000"
      d="m351.69045,262.27709c0.57771,-0.96399 1.15541,-1.28532 1.15541,-1.60664c0,-0.32133 0.44497,-0.32992 0.57771,-0.64266c0.29678,-0.69929 1.02266,-0.65125 1.15541,-0.96398c0.29678,-0.6993 1.15541,-0.64266 1.73311,-0.96399c0.57771,-0.32133 0.97831,-0.46875 1.73311,-0.64266c0.53375,-0.12297 1.15541,0 1.73312,0c1.73311,0 2.88852,0 3.46623,0c1.73311,0 2.88852,0 4.04392,0c1.15541,0 2.88853,0.32133 3.46623,0.32133c0.57771,0 1.02268,0.32992 1.15541,0.64266c0.29678,0.6993 1.4405,1.2463 1.73312,2.24931c0.27762,0.95154 0,1.92797 0,2.57063c0,0.64266 0,0.96399 0,1.28532c0,0.32133 0.40848,0.73678 0,0.96399c-0.4085,0.22721 -0.40061,0.46875 -1.15541,0.64266c-0.53373,0.12297 -0.57771,0.32133 -0.57771,0.64266c0,0.32133 -0.5777,0.32133 -1.15541,0.64266c-0.5777,0.32133 -0.74691,0.41544 -1.15541,0.64266c-0.40848,0.22721 -0.84275,0.54415 -1.15541,0.96399c-0.22108,0.29687 -0.6777,0.91667 -1.15541,1.28532c-0.75532,0.58289 -0.5777,0.96398 -0.5777,1.28531c0,0.32133 0,0.96399 0,1.28532c0,0.64266 0,0.96399 0,1.60664c0,0.32133 -0.22109,0.66712 0,0.96399c0.31264,0.41983 0.84275,0.54415 1.15541,0.96398c0.22108,0.29687 0.5777,0.64266 0.5777,1.28532c0,0.32133 -0.40848,0.73678 0,0.96399c0.4085,0.22721 0.57771,0.64266 0.57771,0.96398c0,0.32133 -0.26506,0.54415 -0.57771,0.96399c-0.44215,0.59374 -1.25541,0.91667 -1.73311,1.28532c-0.75533,0.58289 -1.39739,0.77725 -2.31082,1.28531c-0.91344,0.50807 -2.13372,0.46876 -2.88853,0.64266c-1.60119,0.3689 -2.88852,0.32133 -3.46623,0.32133c-1.73311,0 -2.3108,0.32133 -3.46621,0.32133c-1.15541,0 -1.73312,0 -2.31082,0c-1.15541,0 -1.84057,0.09879 -2.88853,-0.32133c-1.32555,-0.53142 -2.14066,-1.07523 -3.46623,-1.60664c-1.04794,-0.42012 -2.39803,-0.46099 -3.46623,-1.28532c-0.67558,-0.52135 -0.97777,-1.02375 -1.73311,-1.60664c-0.47771,-0.36865 -1.42046,-0.86548 -1.73311,-1.28531c-0.22109,-0.29687 -0.28093,-0.58603 -0.57771,-1.28532c-0.13273,-0.31274 0,-0.64266 0,-1.28532c0,-0.32133 0,-0.96399 0,-1.60664c0,-0.32133 -0.26546,-0.98118 0,-1.60664c0.29678,-0.69929 0.57771,-1.60664 1.15541,-2.2493c0.57771,-0.64266 1.15541,-1.28532 2.31082,-2.24931l0.5777,-0.96398l1.15541,-0.96399l1.15541,-0.96398"
      stroke-width="0" fill="#4892b5" />
  </g>
</svg>
