<svg xmlns="http://www.w3.org/2000/svg" viewBox="0 0 128 128">
  <defs>
    <style>
      .chicken1 {
        isolation: isolate;
      }

      .chicken2 {
        mix-blend-mode: multiply;
      }

      .chicken9,
      .chicken3 {
        fill: #302a27;
      }

      .chicken4 {
        fill: #fff;
      }

      .chicken5 {
        fill: #ed6e4b;
      }

      .chicken6 {
        opacity: 0.24;
      }

      .chicken7 {
        opacity: 0.12;
      }

      .chicken9,
      .chicken8 {
        stroke: #302a27;
        stroke-linecap: round;
        stroke-linejoin: round;
        stroke-width: 2px;
      }

      .chicken8 {
        fill: none;
      }
    </style>
  </defs>
  <g class="chicken1">
    <g class="chicken2">
      <path class="chicken3"
        d="M68.5,115a9.387,9.387,0,0,1-4.5-1.139,9.48,9.48,0,0,1-12.862-3.867A9.27,9.27,0,0,1,50,105.5a9.515,9.515,0,0,1,8-9.382V85.808a6.02,6.02,0,0,1-4.323-4.425,15.345,15.345,0,0,0-1.324-3.416,53.444,53.444,0,0,0-6.282-8.612c-5.059-6.1-10.793-13.014-11.889-22.976a30.266,30.266,0,0,1,7.067-22.807,29.572,29.572,0,0,1,21.168-10.53c.526-.026,1.047-.039,1.564-.039A29.993,29.993,0,0,1,94,43c0,11.792-6.409,19.522-12.064,26.343C78.5,73.485,75.258,77.4,74.3,81.47A5.932,5.932,0,0,1,70,85.806V96.118A9.5,9.5,0,0,1,68.5,115Z" />
      <path class="chicken3"
        d="M63.982,15A27.992,27.992,0,0,1,92,43c0,18.42-16.97,26.66-19.65,38.01A3.936,3.936,0,0,1,68.49,84H68V98.04c.17-.01.33-.04.5-.04A7.5,7.5,0,1,1,64,111.49a7.479,7.479,0,0,1-11.1-2.44,7.34,7.34,0,0,1-.9-3.55A7.5,7.5,0,0,1,59.5,98c.17,0,.33.03.5.04V84h-.49a4.016,4.016,0,0,1-3.89-3.09,17.379,17.379,0,0,0-1.49-3.86c-4.64-8.86-16.4-16.7-17.96-30.89A28.2,28.2,0,0,1,62.52,15.04Q63.255,15,63.982,15m0-4c-.551,0-1.11.014-1.663.042A31.558,31.558,0,0,0,39.726,22.276,32.275,32.275,0,0,0,32.194,46.6c1.161,10.561,7.1,17.72,12.337,24.036a52.152,52.152,0,0,1,6.056,8.274,13.31,13.31,0,0,1,1.146,2.947A8.035,8.035,0,0,0,56,87.189v7.356A11.521,11.521,0,0,0,48,105.5a11.268,11.268,0,0,0,1.391,5.47A11.488,11.488,0,0,0,64,116.082a11.388,11.388,0,0,0,4.5.918A11.5,11.5,0,0,0,72,94.544V87.207a7.813,7.813,0,0,0,4.247-5.295c.85-3.6,3.806-7.165,7.229-11.294C89.056,63.889,96,55.513,96,43A31.992,31.992,0,0,0,63.982,11Z" />
      <g data-name="&lt;Group&gt;">
        <path class="chicken4"
          d="M68.5,98A7.5,7.5,0,1,1,64,111.49a7.479,7.479,0,0,1-11.1-2.44,7.34,7.34,0,0,1-.9-3.55A7.5,7.5,0,0,1,59.5,98c.17,0,.33.03.5.04V84h8V98.04C68.17,98.03,68.33,98,68.5,98Z" />
        <path class="chicken5"
          d="M73.27,16.58A28,28,0,0,1,92,43c0,18.42-16.97,26.66-19.65,38.01A3.936,3.936,0,0,1,68.49,84H59.51a4.016,4.016,0,0,1-3.89-3.09,17.38,17.38,0,0,0-1.49-3.86c-4.64-8.86-16.4-16.7-17.96-30.89a28.007,28.007,0,0,1,37.1-29.58Z" />
        <g class="chicken6">
          <circle class="chicken3" cx="58" cy="45" r="2" />
          <circle class="chicken3" cx="54" cy="29" r="2" />
          <circle class="chicken3" cx="46" cy="39" r="2" />
        </g>
        <g class="chicken7">
          <path class="chicken9"
            d="M92,43c0,18.42-16.97,26.66-19.65,38.01A3.936,3.936,0,0,1,68.49,84H59.51a4.016,4.016,0,0,1-3.89-3.09,17.379,17.379,0,0,0-1.49-3.86c3.64.31,7.4,2.34,10.63.71a10.455,10.455,0,0,0,3.17-2.94C72.07,69.74,71.86,67.08,76,62c1.22-1.5,6.81-5.45,7.5-7.26,1.67-4.38-.23-9.35.68-13.94.4-2.06,1.36-4.17.71-6.16-.93-2.81-4.41-3.71-6.55-5.75-3.25-3.1-2.97-8.36-5.07-12.31A28,28,0,0,1,92,43Z" />
          <path class="chicken9"
            d="M76,105.5a7.49,7.49,0,0,1-12,5.99,7.479,7.479,0,0,1-11.1-2.44,5.612,5.612,0,0,1,2.44-1.18c2.34-.47,4.73.52,7.12.48a16.7,16.7,0,0,0,4.72-.99c1.42-.45,3.08-1.15,3.34-2.62.21-1.22-.69-2.35-1.65-3.13a8.061,8.061,0,0,1-2.57-2.63C66,98.31,64.04,96.74,64,96c-.17-3.38,3-5,1.41-9.33A4.272,4.272,0,0,1,65.38,84H68V98.04c.17-.01.33-.04.5-.04A7.5,7.5,0,0,1,76,105.5Z" />
        </g>
        <path class="chicken8"
          d="M60,84h-.49a4.016,4.016,0,0,1-3.89-3.09,17.38,17.38,0,0,0-1.49-3.86c-4.64-8.86-16.4-16.7-17.96-30.89A28,28,0,1,1,92,43c0,18.42-16.97,26.66-19.65,38.01A3.936,3.936,0,0,1,68.49,84H68" />
        <path class="chicken8"
          d="M68,84V98.04c.17-.01.33-.04.5-.04A7.5,7.5,0,1,1,64,111.49a7.479,7.479,0,0,1-11.1-2.44,7.34,7.34,0,0,1-.9-3.55A7.5,7.5,0,0,1,59.5,98c.17,0,.33.03.5.04V84Z" />
      </g>
    </g>
  </g>
</svg>
