<svg xmlns="http://www.w3.org/2000/svg" viewBox="0 0 400 500">
  <defs>
    <style>
      .honey1 {
        fill: #b3814b;
      }

      .honey2 {
        fill: #9f7243;
      }

      .honey3 {
        fill: #513b2c;
      }

      .honey4 {
        fill: #88a350;
      }

      .honey5 {
        fill: #f7e6c5;
      }

      .honey6 {
        fill: #d7c6aa;
      }

      .honey7 {
        fill: #faae3b;
      }

      .honey8 {
        fill: #e29834;
      }

      .honey9 {
        fill: none;
        stroke: #000;
        stroke-linecap: round;
        stroke-linejoin: round;
        stroke-width: 20px;
      }
    </style>
  </defs>
  <path class="honey3"
    d="M65,41.42H304.34a25.14,25.14,0,0,1,25.14,25.14V81.15a10.72,10.72,0,0,1-10.72,10.72H50.59A10.72,10.72,0,0,1,39.87,81.15V66.56A25.14,25.14,0,0,1,65,41.42Z" />
  <polygon class="honey3"
    points="184.67 178.12 357.9 178.12 317.05 127.34 184.67 127.34 52.29 127.34 11.44 178.12 184.67 178.12" />
  <rect class="honey4" x="52.29" y="91.87" width="264.76" height="35.47" />
  <path class="honey5"
    d="M184.67,178.12H43.49A211.07,211.07,0,0,0,11.44,289.76c0,48.92,18.64,98.7,34,131.42,10.73,22.86,34.19,37.46,60,37.46H263.89c25.84,0,49.3-14.6,60-37.46,15.36-32.72,34-82.5,34-131.42a211,211,0,0,0-32-111.64Z" />
  <path class="honey6"
    d="M325.85,178.12H287.12a211,211,0,0,1,32.05,111.64c0,48.92-18.63,98.7-34,131.42-10.73,22.86-34.19,37.46-60,37.46h38.72c25.84,0,49.3-14.6,60-37.46,15.36-32.72,34-82.5,34-131.42A211,211,0,0,0,325.85,178.12Z" />
  <path class="honey7"
    d="M11.44,289.76c0,48.92,18.64,98.7,34,131.42,10.73,22.86,34.19,37.46,60,37.46H263.89c25.84,0,49.3-14.6,60-37.46,15.36-32.72,34-82.5,34-131.42a209.15,209.15,0,0,0-6.63-52.33H18.08A208.67,208.67,0,0,0,11.44,289.76Z" />
  <path class="honey8"
    d="M351.27,237.43H312.54a209.15,209.15,0,0,1,6.63,52.33c0,48.92-18.63,98.7-34,131.42-10.73,22.86-34.19,37.46-60,37.46h38.72c25.84,0,49.3-14.6,60-37.46,15.36-32.72,34-82.5,34-131.42A209.15,209.15,0,0,0,351.27,237.43Z" />
  <rect class="honey9" x="52.29" y="91.87" width="264.76" height="35.47" />
  <path class="honey9"
    d="M65,41.42H304.34a25.14,25.14,0,0,1,25.14,25.14V81.15a10.72,10.72,0,0,1-10.72,10.72H50.59A10.72,10.72,0,0,1,39.87,81.15V66.56A25.14,25.14,0,0,1,65,41.42Z" />
  <polygon class="honey9"
    points="184.67 178.12 357.9 178.12 317.05 127.34 184.67 127.34 52.29 127.34 11.44 178.12 184.67 178.12" />
  <path class="honey9"
    d="M184.67,178.12H43.49A211.07,211.07,0,0,0,11.44,289.76c0,48.92,18.64,98.7,34,131.42,10.73,22.86,34.19,37.46,60,37.46H263.89c25.84,0,49.3-14.6,60-37.46,15.36-32.72,34-82.5,34-131.42a211,211,0,0,0-32-111.64Z" />
  <path class="honey9"
    d="M11.44,289.76c0,48.92,18.64,98.7,34,131.42,10.73,22.86,34.19,37.46,60,37.46H263.89c25.84,0,49.3-14.6,60-37.46,15.36-32.72,34-82.5,34-131.42a209.15,209.15,0,0,0-6.63-52.33H18.08A208.67,208.67,0,0,0,11.44,289.76Z" />
</svg>
