<svg xmlns="http://www.w3.org/2000/svg" viewBox="0 0 500 500">
  <defs>
    <style>
      .mushroom1 {
        fill: #dd953e;
      }

      .mushroom2 {
        fill: #db8321;
      }

      .mushroom3 {
        fill: #f9e5c7;
      }

      .mushroom4 {
        fill: #f7d2a1;
      }

      .mushroom5 {
        fill: none;
        stroke: #000;
        stroke-linecap: round;
        stroke-linejoin: round;
        stroke-width: 15px;
      }
    </style>
  </defs>
  <title>mushrooms</title>
  <path class="mushroom1"
    d="M225.61,403.16c44.52,36.08,106.51,36.08,151,0l1.05-.87c49.95-41.36-16.39-110.19-14.21-157.22s37.2-39.42,40.24-20.19c3.27,20.65-16.29,13.87-8.77,49.69,10.11,48.17,96.88,30.8,96.88-92.12,0-149.11-190.71-147.72-190.71-147.72S110.42,33.34,110.42,182.45c0,122.92,86.77,140.29,96.88,92.12,7.51-35.82-12-29-8.78-49.69,3-19.23,38.07-26.84,40.25,20.19s-64.16,115.86-14.22,157.22C224.9,402.59,225.25,402.87,225.61,403.16Z" />
  <path class="mushroom2"
    d="M451.36,141.48a146.45,146.45,0,0,1,5.51,41c0,65-24.29,100.51-48.66,112.38,27.12,17.26,83.63-13.18,83.63-112.38,0-149.11-190.71-147.72-190.71-147.72s-6.66,0-17.49.84C324.87,39,426.58,56,451.36,141.48" />
  <path class="mushroom3"
    d="M363.49,245.07c0-.72.07-1.43.12-2.12,1.59-22.79-11.69-44.29-33.52-52.13a86.69,86.69,0,0,0-57.92,0c-21.83,7.84-35.12,29.34-33.52,52.13,0,.69.09,1.4.12,2.12,2.17,47-64.16,115.86-14.22,157.22.35.3.7.58,1.06.87,44.52,36.08,106.51,36.08,151,0l1.05-.87C427.65,360.93,361.31,292.1,363.49,245.07Z" />
  <path class="mushroom4"
    d="M363.49,245.07c0-.72.07-1.43.12-2.12a52.15,52.15,0,0,0-10.43-35.19c-12.13,3.84-23.64,15.22-24.66,37.31-2.18,47,64.15,115.86,14.21,157.22l-1.05.87a120.36,120.36,0,0,1-58,25.73h0a119.18,119.18,0,0,0,93-25.73l1.05-.87C427.65,360.93,361.31,292.1,363.49,245.07Z" />
  <path class="mushroom5"
    d="M225.61,403.16c44.52,36.08,106.51,36.08,151,0l1.05-.87c49.95-41.36-16.39-110.19-14.21-157.22s37.2-39.42,40.24-20.19c3.27,20.65-16.29,13.87-8.77,49.69,10.11,48.17,96.88,30.8,96.88-92.12,0-149.11-190.71-147.72-190.71-147.72S110.42,33.34,110.42,182.45c0,122.92,86.77,140.29,96.88,92.12,7.51-35.82-12-29-8.78-49.69,3-19.23,38.07-26.84,40.25,20.19s-64.16,115.86-14.22,157.22C224.9,402.59,225.25,402.87,225.61,403.16Z" />
  <path class="mushroom1"
    d="M109.1,441.56c39,31.61,93.35,31.61,132.36,0l.93-.76C286.15,404.55,228,344.24,229.93,303s32.6-34.55,35.27-17.69c2.86,18.09-14.28,12.15-7.69,43.53,8.86,42.22,84.9,27,84.9-80.72,0-130.67-167.13-129.45-167.13-129.45S8.16,117.48,8.16,248.15c0,107.71,76,122.94,84.9,80.72,6.59-31.38-10.55-25.44-7.69-43.53C88,268.48,118.73,261.82,120.64,303S64.41,404.55,108.18,440.8Z" />
  <path class="mushroom2"
    d="M306.93,212.25a128.37,128.37,0,0,1,4.83,35.9c0,57-21.28,88.08-42.64,98.48,23.77,15.13,73.29-11.55,73.29-98.48,0-130.67-167.13-129.45-167.13-129.45s-5.83,0-15.32.74c36.13,3,125.26,17.94,147,92.81" />
  <path class="mushroom3"
    d="M229.93,303c0-.63.06-1.25.11-1.86a45,45,0,0,0-29.38-45.69,76,76,0,0,0-50.76,0,45,45,0,0,0-29.37,45.69c0,.61.08,1.22.11,1.86,1.9,41.21-56.23,101.52-12.46,137.77l.92.76c39,31.61,93.35,31.61,132.36,0l.93-.76C286.15,404.55,228,344.24,229.93,303Z" />
  <path class="mushroom4"
    d="M229.93,303c0-.63.06-1.25.11-1.86a45.67,45.67,0,0,0-9.15-30.84c-10.62,3.37-20.71,13.34-21.61,32.7-1.9,41.21,56.23,101.52,12.46,137.77-.3.26-.61.51-.92.76A105.48,105.48,0,0,1,160,464.11h0a104.39,104.39,0,0,0,81.49-22.55l.93-.76C286.15,404.55,228,344.24,229.93,303Z" />
  <path class="mushroom5"
    d="M109.1,441.56c39,31.61,93.35,31.61,132.36,0l.93-.76C286.15,404.55,228,344.24,229.93,303s32.6-34.55,35.27-17.69c2.86,18.09-14.28,12.15-7.69,43.53,8.86,42.22,84.9,27,84.9-80.72,0-130.67-167.13-129.45-167.13-129.45S8.16,117.48,8.16,248.15c0,107.71,76,122.94,84.9,80.72,6.59-31.38-10.55-25.44-7.69-43.53C88,268.48,118.73,261.82,120.64,303S64.41,404.55,108.18,440.8Z" />
</svg>
