<svg xmlns="http://www.w3.org/2000/svg" viewBox="0 0 500 500">
  <defs>
    <style>
      .onion1 {
        fill: #ffa022;
      }

      .onion2 {
        fill: #f28400;
      }

      .onion3,
      .onion4 {
        fill: none;
        stroke-linecap: round;
        stroke-linejoin: round;
        stroke-width: 15px;
      }

      .onion3 {
        stroke: #000;
      }

      .onion4 {
        stroke: #e26600;
      }
    </style>
  </defs>
  <path class="onion1"
    d="M249.59,461c115.73,0,209.55-54.15,209.55-172,0-69.77-31.06-115.24-79.46-159.53C316.25,71,296.15,7.37,296.15,7.37H203S182.94,71,119.51,129.5C71.11,173.79,40.05,219.26,40.05,289,40.05,406.87,133.87,461,249.59,461Z" />
  <path class="onion1"
    d="M249.59,461c115.73,0,209.55-54.15,209.55-172,0-69.77-31.06-115.24-79.46-159.53C316.25,71,296.15,7.37,296.15,7.37H203S182.94,71,119.51,129.5C71.11,173.79,40.05,219.26,40.05,289,40.05,406.87,133.87,461,249.59,461Z" />
  <path class="onion2"
    d="M421.14,174.19c5.8,18.6,8.92,38.93,8.92,61.69,0,125.15-99.63,182.65-222.53,182.65C155.14,418.53,107,408.07,69,386.38,105.39,437.07,172.64,461,249.59,461c115.73,0,209.55-54.15,209.55-172C459.14,242.1,445.07,206.17,421.14,174.19Z" />
  <path class="onion2" d="M298.13,12.86c-1.36-3.53-2-5.49-2-5.49h-1.91C295.5,9.19,296.79,11,298.13,12.86Z" />
  <line class="onion3" x1="249.59" y1="461.02" x2="249.59" y2="491.57" />
  <line class="onion3" x1="213.85" y1="483.8" x2="228.67" y2="460.42" />
  <line class="onion3" x1="185.71" y1="468.45" x2="199.73" y2="457.41" />
  <line class="onion3" x1="285.34" y1="483.8" x2="270.52" y2="460.42" />
  <line class="onion3" x1="313.48" y1="468.45" x2="299.46" y2="457.41" />
  <path class="onion4" d="M119.51,129.5S1.5,309.39,140.45,441.23" />
  <path class="onion4" d="M156.3,89.64S31,317,192.72,456.26" />
  <path class="onion4" d="M203,7.37s-126,287.77,18.22,452.53" />
  <path class="onion4" d="M245.81,461S140.45,296.09,232.67,7.37" />
  <path class="onion4" d="M379.68,129.5s118,179.89-20.94,311.73" />
  <path class="onion4" d="M342.89,89.64S468.23,317,306.47,456.26" />
  <path class="onion4" d="M296.15,7.37s126,287.77-18.22,452.53" />
  <path class="onion4" d="M253.38,461S358.74,296.09,266.52,7.37" />
  <line class="onion4" x1="249.59" y1="7.37" x2="249.59" y2="461.02" />
  <path class="onion3"
    d="M249.59,461c115.73,0,209.55-54.15,209.55-172,0-69.77-31.06-115.24-79.46-159.53C316.25,71,296.15,7.37,296.15,7.37H203S182.94,71,119.51,129.5C71.11,173.79,40.05,219.26,40.05,289,40.05,406.87,133.87,461,249.59,461Z" />
</svg>
