<svg xmlns="http://www.w3.org/2000/svg" viewBox="0 0 90 75">
  <g>
    <path class="salmon1"
      d="M33.71,18.35a1.68,1.68,0,0,0-1.84,1.9c.69,5.62,3,21,8.74,27.45,7,8,16.46,11.06,25.15,9.28,1.07-10.46-1.92-21.54-9-29.56C51.21,21.06,38.67,18.95,33.71,18.35Z" />
    <path class="salmon1"
      d="M53.81,56.53a15.52,15.52,0,0,1-3.56,11.72c-1.8,2-5.4,3-7.75,3.39a1.68,1.68,0,0,1-1.94-1.94c.42-2.76,1.39-7.35,3.27-9.49A10.44,10.44,0,0,1,53.81,56.53Z" />
    <path class="salmon1"
      d="M6.87,32c7.33.75,14,5.88,19.24,13.92C20.86,54,14.19,59.13,6.87,59.88A1.7,1.7,0,0,1,5,58.17V33.73A1.7,1.7,0,0,1,6.87,32Z" />
    <path class="salmon2"
      d="M51.73,25.06c12.36,0,23.69,7.45,32.55,19.8a1.77,1.77,0,0,1,0,2c-8.86,12.35-20.19,19.8-32.55,19.8S28,59.26,19.18,46.9a1.77,1.77,0,0,1,0-2C28,32.51,39.37,25.06,51.73,25.06Z" />
    <path class="salmon3"
      d="M63.69,64.23a42.85,42.85,0,0,1-3.95-18.35,42.85,42.85,0,0,1,3.95-18.35c7.62,3.11,14.6,9,20.48,17.18a2,2,0,0,1,0,2.33C78.29,55.2,71.32,61.13,63.69,64.23Z" />
    <ellipse class="salmon4" cx="70.16" cy="39.83" rx="2.5" ry="2.55" />
  </g>
</svg>
