<svg viewBox="0 0 62 68" xmlns="http://www.w3.org/2000/svg">
  <g>
    <path
      d="m41.74517,28.72222c-1.654,0 -3,-1.346 -3,-3s1.346,-3 3,-3c2.49,0 3,0.732 3,1.833c0,1.819 -1.455,4.167 -3,4.167z"
      class="skin" />
    <path
      d="m41.74517,23.22222c2.5,0 2.5,0.739 2.5,1.333c0,1.515 -1.293,3.667 -2.5,3.667c-1.379,0 -2.5,-1.121 -2.5,-2.5s1.121,-2.5 2.5,-2.5m0,-1c-1.933,0 -3.5,1.567 -3.5,3.5c0,1.933 1.567,3.5 3.5,3.5s3.5,-2.734 3.5,-4.667c0,-1.933 -1.567,-2.333 -3.5,-2.333l0,0z"
      class="skin" />
    <path
      d="m20.74517,28.72222c-1.545,0 -3,-2.348 -3,-4.167c0,-1.101 0.51,-1.833 3,-1.833c1.654,0 3,1.346 3,3s-1.346,3 -3,3z"
      class="skin" />
    <path
      d="m20.74517,23.22222c1.379,0 2.5,1.121 2.5,2.5s-1.121,2.5 -2.5,2.5c-1.207,0 -2.5,-2.152 -2.5,-3.667c0,-0.594 0,-1.333 2.5,-1.333m0,-1c-1.933,0 -3.5,0.4 -3.5,2.333c0,1.933 1.567,4.667 3.5,4.667s3.5,-1.567 3.5,-3.5c0,-1.933 -1.567,-3.5 -3.5,-3.5l0,0z"
      class="skin" />
    <path
      d="m31.24517,40.72222c-1.269,0 -2.446,-0.526 -3.315,-1.483l-0.084,-0.092l-0.118,-0.042c-4.177,-1.488 -6.983,-5.46 -6.983,-9.883l0,-14.619c0,-2.615 2.127,-4.742 4.742,-4.742l11.516,0c2.615,0 4.742,2.127 4.742,4.742l0,14.619c0,4.423 -2.806,8.395 -6.982,9.883l-0.118,0.042l-0.084,0.092c-0.87,0.957 -2.047,1.483 -3.316,1.483z"
      class="skin" />
    <path
      d="m20.82433,41c0,0 2.7027,-1.01351 2.6554,-1.13514c0.0473,0.12162 1.39865,-4.10135 1.35135,-4.22297c0.0473,0.12162 13.22298,-0.0473 13.17568,-0.16892c0.0473,0.12162 0.8919,3.66892 0.84459,3.5473c0.0473,0.12162 2.91892,2.31757 2.87162,2.19595c0.0473,0.12162 2.91892,12.4527 -10.08783,12.28378c-13.00676,-0.16892 -10.81081,-12.5 -10.81081,-12.5z"
      class="skin" />
    <path
      d="m37.00317,10.36122c2.339,0 4.242,1.903 4.242,4.242l0,14.619c0,4.213 -2.672,7.995 -6.65,9.412l-0.236,0.084l-0.168,0.185c-0.774,0.85 -1.821,1.319 -2.946,1.319s-2.172,-0.469 -2.946,-1.32l-0.168,-0.185l-0.236,-0.084c-3.978,-1.416 -6.65,-5.198 -6.65,-9.411l0,-14.619c0,-2.339 1.903,-4.242 4.242,-4.242l11.516,0m0,-1l-11.516,0c-2.895,0 -5.242,2.347 -5.242,5.242l0,14.619c0,4.78 3.055,8.837 7.314,10.354c0.915,1.004 2.22,1.646 3.686,1.646s2.771,-0.642 3.686,-1.647c4.259,-1.517 7.314,-5.573 7.314,-10.353l0,-14.619c0,-2.895 -2.347,-5.242 -5.242,-5.242l0,0z"
      class="chinline" />
    <g>
      <path
        d="m41.74517,26.72222l0,-4.082c0,-3.816 -2.283,-5.918 -6.429,-5.918c-6.318,0 -9.659,-3.788 -9.692,-3.826l-0.224,-0.26l-0.323,0.115c-0.044,0.016 -4.332,1.614 -4.332,7.281l0,6.69l-0.153,0c-0.556,-1.502 -2.847,-7.895 -2.847,-11.274c0,-6.752 5.155,-8.271 6.961,-8.271l0.249,0l0.149,-0.198c0.92,-1.217 3.072,-3.257 7.141,-3.257c7.824,0 12.5,5.782 12.5,11.373c0,4.3 -2.272,10.226 -2.836,11.627l-0.164,0z"
        class="hair" />
      <path
        d="m32.24517,4.22222c7.794,0 12,5.602 12,10.873c0,3.005 -1.144,6.846 -2,9.299l0,-1.755c0,-4.138 -2.461,-6.417 -6.928,-6.417c-6.069,0 -9.185,-3.504 -9.312,-3.65l-0.448,-0.523l-0.648,0.232c-0.191,0.067 -4.664,1.735 -4.664,7.751l0,4.193c-0.859,-2.575 -2,-6.437 -2,-8.777c0,-6.344 4.785,-7.772 6.461,-7.772l0.498,0l0.3,-0.397c0.863,-1.141 2.887,-3.057 6.741,-3.057m0,-1c-4.794,0 -7.007,2.752 -7.539,3.454c-2.104,0 -7.461,1.789 -7.461,8.772c0,3.965 3,11.774 3,11.774l1,0c0,0 0,-5.664 0,-7.19c0,-5.38 4,-6.81 4,-6.81s3.425,4 10.072,4c3.036,0 5.928,1.154 5.928,5.418c0,1.387 0,4.582 0,4.582l1,0c0,0 3,-7.083 3,-12.126c0,-5.744 -4.673,-11.874 -13,-11.874l0,0z"
        class="hair" />
    </g>
    <path d="m36.74517,25.22222a1.5,1.5 0 1 0 0,3a1.5,1.5 0 1 0 0,-3zm-11,0a1.5,1.5 0 1 0 0,3a1.5,1.5 0 1 0 0,-3z"
      fill="#36404d" />
    <path class="shirt"
      d="m2.82105,68.26635c1.76263,-22.89324 1.32775,-20.82844 18.54693,-28.02635c2.20676,15.47153 19.19461,15.58704 19.52771,0c18.24159,7.63108 17.44124,4.88043 18.77362,28.02635l-56.84826,0z" />
  </g>
</svg>
