<?xml version="1.0" encoding="iso-8859-1"?>
<svg xmlns="http://www.w3.org/2000/svg" xmlns:xlink="http://www.w3.org/1999/xlink" version="1.1" id="Layer_1"  viewBox="0 0 415.751 415.751" xml:space="preserve" width="512" height="512">
<g>
	<path fill="#1b192e" d="M186.499,385.692c-14.9,14.89-34.71,21.61-53.05,15.86c-28.84-9.03-43.08-45.49-31.82-81.43   c6.87-21.95,21.68-38.64,38.74-46.23c-4.4,16.83-4.1,36.18,1.93,55.4C150.359,355.032,166.969,375.092,186.499,385.692z"/>
	<path fill="#2d2848" d="M275.539,287.542c14.37,45.85-3.81,92.37-40.61,103.9c-16.14,5.05-33.18,2.54-48.43-5.75   c-19.53-10.6-36.14-30.66-44.2-56.4c-6.03-19.22-6.33-38.57-1.93-55.4c1.12-4.3,2.55-8.43,4.27-12.36   c7.59-17.37,20.84-30.68,38.27-36.14C219.709,213.872,261.179,241.692,275.539,287.542z"/>
	<path fill="#1b192e" d="M203.796,329.292c-6.03-19.22-6.33-38.57-1.93-55.4c1.12-4.3,2.55-8.43,4.27-12.36   c5.596-12.806,14.277-23.393,25.432-30.266c-15.313-8.383-32.439-10.951-48.659-5.874c-17.43,5.46-30.68,18.77-38.27,36.14   c-1.72,3.93-3.15,8.06-4.27,12.36c-4.4,16.83-4.1,36.18,1.93,55.4c8.06,25.74,24.67,45.8,44.2,56.4   c15.25,8.29,32.29,10.8,48.43,5.75c4.584-1.436,8.879-3.417,12.858-5.87C228.349,374.941,211.827,354.94,203.796,329.292z"/>
	<path fill="#90BC42" d="M408.249,300.382c-16.96-9.39-31.99-19.76-45.3-30.75h-0.02c-2.78-78.75-34.22-139.7-61.41-178.15   C343.469,125.962,402.249,192.922,408.249,300.382z"/>
	<path fill="#9AD14B" d="M356.249,348.102c-115.43-110.3-104.45-247.46-97.59-290.05c1.37-8.51,2.57-13.24,2.57-13.24   s18.82,16.33,40.28,46.66l0.01,0.01c27.19,38.45,58.63,99.4,61.41,178.15C363.809,294.112,361.909,320.322,356.249,348.102z"/>
	<path fill="#9AD14B" d="M232.019,101.602c-0.4,0.71-0.81,1.42-1.22,2.13c-13.09,13.84-95.77,94.52-223.3,68.54   C101.789,73.592,222.509,99.372,232.019,101.602z"/>
	<path fill="#FFFFFF" d="M247.876,361.441c-1.424,0-2.862-0.405-4.138-1.25c-3.452-2.289-4.396-6.943-2.106-10.396   c1.692-2.552,3.167-5.424,4.384-8.537c5.152-13.182,5.301-29.021,0.418-44.599c-3.678-11.743-10.223-22.547-18.431-30.424   c-2.988-2.868-3.086-7.616-0.218-10.604c2.869-2.989,7.616-3.086,10.604-0.218c10.144,9.734,17.875,22.446,22.358,36.761   c5.899,18.823,5.629,38.194-0.762,54.545c-1.604,4.103-3.573,7.926-5.853,11.365C252.691,360.261,250.306,361.441,247.876,361.441z   "/>
	<path fill="#90BC42" d="M356.249,348.102c-115.43-110.3-104.45-247.46-97.59-290.05l6.25-2.25L356.249,348.102z"/>
	<path fill="#90BC42" d="M232.019,101.602l-224.52,70.67C101.789,73.592,222.509,99.372,232.019,101.602z"/>
	<circle fill="#FFFFFF" cx="216.598" cy="249.767" r="7.5"/>
	<path fill="#333333" d="M374.797,164.703c-17.653-29.424-40.427-55.764-67.686-78.317   c-17.105-24.075-32.447-39.333-38.386-44.892c3.38-8.923,6.475-17.999,9.191-27.229c1.169-3.974-1.104-8.143-5.078-9.312   c-3.976-1.172-8.143,1.104-9.313,5.078c-8.648,29.392-21.128,57.305-35.449,83.096c-11.665-2.164-38.249-5.788-71.994-2.12   c-41.39,4.499-101.707,21.352-154.006,76.089c-1.886,1.974-2.551,4.818-1.734,7.423c0.816,2.606,2.984,4.562,5.66,5.107   c17.907,3.647,34.936,5.215,50.984,5.215c50.436,0,91.173-15.49,118.906-30.603c8.289-4.517,15.788-9.179,22.494-13.741   c-18.007,25.763-36.746,48.229-53.349,66.425c-44.389,48.646-83.579,78.188-83.97,78.48c-3.314,2.483-3.989,7.184-1.507,10.498   c1.474,1.967,3.728,3.005,6.01,3.005c1.563,0,3.14-0.487,4.487-1.497c1.344-1.006,27.894-21.01,62.487-55.682l4.261,19.12   c-0.121,0.3-0.255,0.589-0.374,0.892c-0.877,2.244-1.647,4.536-2.349,6.854c-18.11,9.299-32.778,27.458-39.615,49.283   c-5.953,19.005-5.581,38.814,1.048,55.779c6.855,17.544,19.531,29.994,35.691,35.056c5.13,1.607,10.396,2.394,15.688,2.394   c14.211,0,28.586-5.692,40.881-16.381c9.79,4.526,19.93,6.84,29.971,6.84c6.561,0,13.079-0.983,19.424-2.971   c20.009-6.269,35.719-21.718,44.233-43.501c8.29-21.207,8.749-45.993,1.293-69.792c-7.456-23.799-21.976-43.892-40.885-56.578   c-16.869-11.318-35.466-15.609-53.177-12.437l-6.32-29.668c22.497-27.677,46.097-61.141,65.552-98.663   c-0.987,16.553-0.996,36.891,1.483,59.692c3.825,35.193,12.834,68.936,26.774,100.29c17.431,39.202,42.645,74.727,74.944,105.587   c1.416,1.353,3.279,2.077,5.182,2.077c0.749,0,1.505-0.112,2.241-0.343c2.605-0.816,4.562-2.984,5.106-5.66   c4.4-21.6,6.726-43.148,6.995-64.5c10.71,7.912,22.094,15.238,34.018,21.846c1.133,0.628,2.385,0.94,3.636,0.94   c1.386,0,2.77-0.384,3.985-1.146c2.313-1.451,3.655-4.045,3.503-6.772C413,250.928,399.226,205.419,374.797,164.703z    M168.2,141.348c-21.844,11.836-44.898,20.107-68.524,24.583c-24.96,4.728-50.655,5.211-76.568,1.456   c19.14-17.871,40.517-32.135,63.711-42.493c21.956-9.805,45.609-16.168,70.302-18.911c25.529-2.837,46.971-1.17,60.023,0.613   C207.441,115.508,190.78,129.112,168.2,141.348z M135.695,394.399c-11.733-3.675-21.039-12.98-26.205-26.201   c-5.392-13.798-5.642-30.076-0.705-45.836c4.192-13.384,11.832-25.024,21.444-33.203c-1.12,13.84,0.497,28.277,4.913,42.373   c7.175,22.901,20.903,42.35,38.776,55.09C161.89,395.372,148.107,398.291,135.695,394.399z M200.033,230.286   c11.205,0,22.694,3.693,33.427,10.894c16.084,10.791,28.487,28.053,34.927,48.606c6.439,20.553,6.103,41.807-0.949,59.846   c-6.826,17.462-19.166,29.768-34.747,34.649c-15.583,4.883-32.737,1.818-48.307-8.628c-16.084-10.791-28.487-28.053-34.927-48.606   c-6.44-20.553-6.104-41.807,0.948-59.846c6.826-17.462,19.166-29.768,34.748-34.649   C189.993,231.035,194.983,230.286,200.033,230.286z M174.233,220.655c-10.307,4.471-19.25,11.546-26.387,20.767l-2.792-12.529   c3.563-3.742,7.179-7.605,10.842-11.617c4.591-5.027,9.348-10.392,14.201-16.038L174.233,220.655z M351.436,332.727   c-26.029-27.006-46.668-57.406-61.448-90.54c-13.317-29.853-21.949-62.008-25.657-95.571c-4.23-38.298-1.003-69.815,1.645-86.667   c11.789,12.329,32.424,36.37,50.802,70.236c16.106,29.679,27.364,61.011,33.462,93.125   C357.006,258.955,357.403,295.696,351.436,332.727z M370.27,265.916c-0.706-15.408-2.482-30.692-5.368-45.79   c-5.379-28.146-14.548-55.692-27.286-82.116c8.975,10.898,17.103,22.383,24.319,34.411c20.8,34.668,33.456,73.038,37.706,114.238   C389.303,280.277,379.475,273.33,370.27,265.916z"/>
</g>
</svg>
