<svg xmlns="http://www.w3.org/2000/svg" width="25" height="17" viewBox="0 0 25 17">
  <g fill="none" fill-rule="evenodd">
    <path fill="#FC0" d="M15.0001,4.5007 C16.9371,4.5007 18.5601,5.0027 19.8981,5.7327 L19.9101,5.7307 L18.5001,1.5007 C13.4101,-0.8393 9.5001,1.5007 7.5001,4.5007 L6.6901,8.5607 L6.6901,8.5657 C8.0461,6.8127 10.6541,4.5007 15.0001,4.5007"/>
    <path fill="#59E1EF" d="M5.5001,10.5007 C5.5001,10.5007 3.5001,7.5007 0.5001,4.5007 C0.5001,4.5007 1.5001,6.5007 1.5001,10.5007 C1.5001,14.5007 0.5001,16.5007 0.5001,16.5007 L5.5001,10.5007 Z"/>
    <path fill="#339EFF" d="M5.5001,10.5007 C5.5001,10.5007 8.0001,16.5007 15.0001,16.5007 C20.5001,16.5007 23.5001,12.5007 24.5001,10.5007 C23.5001,8.5007 20.5001,4.5007 15.0001,4.5007 C8.0001,4.5007 5.5001,10.5007 5.5001,10.5007"/>
    <path fill="#FFF" d="M20.5001,10.5007 C20.5001,11.0537 20.0531,11.5007 19.5001,11.5007 C18.9471,11.5007 18.5001,11.0537 18.5001,10.5007 C18.5001,9.9477 18.9471,9.5007 19.5001,9.5007 C20.0531,9.5007 20.5001,9.9477 20.5001,10.5007"/>
    <path fill="#000" d="M19.5001,11.0007 C19.2251,11.0007 19.0001,10.7757 19.0001,10.5007 C19.0001,10.2257 19.2251,10.0007 19.5001,10.0007 C19.7751,10.0007 20.0001,10.2257 20.0001,10.5007 C20.0001,10.7757 19.7751,11.0007 19.5001,11.0007 L19.5001,11.0007 Z M19.5001,9.0007 C18.6731,9.0007 18.0001,9.6737 18.0001,10.5007 C18.0001,11.3277 18.6731,12.0007 19.5001,12.0007 C20.3271,12.0007 21.0001,11.3277 21.0001,10.5007 C21.0001,9.6737 20.3271,9.0007 19.5001,9.0007 L19.5001,9.0007 Z M15.0001,16.0007 C9.0441,16.0007 6.5381,11.5117 6.0501,10.5007 C6.1931,10.2027 6.5201,9.5997 7.0511,8.8997 C7.0621,8.8897 7.0761,8.8847 7.0861,8.8717 C7.7681,7.9907 8.7271,7.0257 10.0211,6.2787 C10.0271,6.2757 10.0321,6.2727 10.0381,6.2707 C10.6671,5.9087 11.3771,5.6037 12.1711,5.3807 C12.2421,5.3607 12.3171,5.3457 12.3901,5.3267 C12.6971,5.2487 13.0201,5.1857 13.3521,5.1337 C13.4631,5.1167 13.5721,5.0997 13.6861,5.0857 C14.1051,5.0357 14.5401,5.0007 15.0001,5.0007 C15.3911,5.0007 15.7741,5.0267 16.1541,5.0697 C16.2331,5.0787 16.3101,5.0927 16.3881,5.1037 C16.7081,5.1477 17.0241,5.2037 17.3351,5.2787 C17.3851,5.2907 17.4361,5.3037 17.4851,5.3157 C18.2401,5.5117 18.9671,5.7947 19.6591,6.1717 C19.6611,6.1727 19.6641,6.1717 19.6661,6.1727 C22.1171,7.5127 23.4661,9.6327 23.9371,10.5007 C23.2251,11.8137 20.5211,16.0007 15.0001,16.0007 L15.0001,16.0007 Z M1.6611,14.3257 C1.8491,13.3507 2.0001,12.0747 2.0001,10.5007 C2.0001,8.7697 1.8171,7.4007 1.6041,6.3927 C3.2351,8.2047 4.4141,9.8197 4.8731,10.4727 L1.6611,14.3257 Z M7.9711,4.6967 C8.9461,3.2717 12.2971,-0.6773 18.0951,1.8667 L19.0651,4.7787 C18.4681,4.5367 17.8211,4.3397 17.1231,4.2057 C17.0221,4.1857 16.9201,4.1757 16.8191,4.1587 C16.5831,4.1197 16.3491,4.0797 16.1011,4.0567 C15.7381,4.0207 15.3711,4.0007 15.0001,4.0007 C14.5521,4.0007 14.1221,4.0257 13.7081,4.0697 C13.6601,4.0747 13.6171,4.0857 13.5701,4.0917 C10.8791,4.4097 8.9111,5.5947 7.5331,6.8927 L7.9711,4.6967 Z M24.9471,10.2767 C24.5981,9.5777 23.1621,7.0217 20.3251,5.3957 L18.9751,1.3427 C18.9311,1.2117 18.8351,1.1047 18.7091,1.0467 C13.3411,-1.4223 9.1871,1.0697 7.0841,4.2237 C7.0481,4.2777 7.0221,4.3387 7.0101,4.4027 L6.2151,8.3877 C5.8821,8.8267 5.6271,9.2227 5.4391,9.5437 C4.6761,8.4827 3.0371,6.3307 0.8541,4.1467 C0.6801,3.9737 0.4061,3.9517 0.2091,4.0947 C0.0111,4.2367 -0.0559,4.5037 0.0521,4.7237 C0.0621,4.7417 1.0001,6.6917 1.0001,10.5007 C1.0001,14.3097 0.0621,16.2597 0.0521,16.2777 C-0.0599,16.5057 0.0161,16.7807 0.2281,16.9197 C0.3121,16.9747 0.4061,17.0007 0.5011,17.0007 C0.6451,17.0007 0.7861,16.9377 0.8841,16.8207 L5.4041,11.3967 C6.3471,13.0377 9.2201,17.0007 15.0001,17.0007 C21.4801,17.0007 24.4231,11.7717 24.9471,10.7247 C25.0181,10.5837 25.0181,10.4177 24.9471,10.2767 L24.9471,10.2767 Z"/>
    <path fill="#000" d="M24.9474,10.2771 C24.7874,9.9571 24.5764,9.5931 24.3384,9.2281 C24.2464,9.0871 24.0894,9.0011 23.9204,9.0011 C23.7504,9.0011 23.5934,9.0871 23.5004,9.2281 C22.5664,10.6631 19.8674,14.0011 15.0004,14.0011 C10.1434,14.0011 7.5684,11.0161 6.4654,9.2371 C6.3754,9.0901 6.2144,9.0011 6.0414,9.0011 C5.8674,9.0011 5.7074,9.0901 5.6154,9.2371 C5.5474,9.3471 5.4924,9.4441 5.4364,9.5411 C5.3454,9.4161 5.2474,9.2801 5.1334,9.1261 C5.0414,9.0031 4.8984,8.9281 4.7444,8.9231 C4.5934,8.9121 4.4454,8.9851 4.3464,9.1031 L0.8904,13.2511 C0.8324,13.3211 0.7944,13.4061 0.7804,13.4961 C0.5034,15.3191 0.0534,16.2751 0.0494,16.2841 C-0.0586,16.5111 0.0174,16.7851 0.2304,16.9211 C0.3144,16.9741 0.4084,17.0011 0.5004,17.0011 C0.6444,17.0011 0.7864,16.9381 0.8854,16.8211 L5.4044,11.3971 C6.3464,13.0381 9.2184,17.0011 15.0004,17.0011 C21.4804,17.0011 24.4244,11.7721 24.9474,10.7241 C25.0174,10.5841 25.0174,10.4181 24.9474,10.2771" opacity=".24"/>
  </g>
</svg>
