<svg viewBox="0 0 62 68" xmlns="http://www.w3.org/2000/svg">
  <g>
    <path class="skin"
      d="m20.71529,41c0,0 2.7027,-1.01351 2.6554,-1.13514c0.0473,0.12162 1.39865,-4.10135 1.35135,-4.22297c0.0473,0.12162 13.22298,-0.0473 13.17568,-0.16892c0.0473,0.12162 0.8919,3.66892 0.84459,3.5473c0.0473,0.12162 2.91892,2.31757 2.87162,2.19595c0.0473,0.12162 2.91892,12.4527 -10.08783,12.28378c-13.00676,-0.16892 -10.81081,-12.5 -10.81081,-12.5z" />
    <path
      d="m2.82105,68.26635c1.76263,-22.89324 1.32775,-20.82844 18.54693,-28.02635c2.20676,15.47153 19.19461,15.58704 19.52771,0c18.24159,7.63108 17.44124,4.88043 18.77362,28.02635l-56.84826,0z"
      class="shirt" />
    <g>
      <g>
        <path class="skin"
          d="m30.56075,38.5c-1.268,0 -2.446,-0.526 -3.316,-1.483l-0.084,-0.092l-0.118,-0.042c-4.176,-1.487 -6.982,-5.459 -6.982,-9.883l0,-14.619c0,-2.615 2.127,-4.742 4.742,-4.742l11.516,0c2.615,0 4.742,2.127 4.742,4.742l0,14.619c0,4.424 -2.806,8.396 -6.982,9.883l-0.118,0.042l-0.084,0.092c-0.87,0.957 -2.048,1.483 -3.316,1.483z" />
      </g>
      <g>
        <path class="chinline"
          d="m36.31875,8.139c2.339,0 4.242,1.903 4.242,4.242l0,14.619c0,4.213 -2.672,7.995 -6.65,9.412l-0.236,0.084l-0.168,0.185c-0.774,0.851 -1.821,1.319 -2.946,1.319s-2.172,-0.469 -2.946,-1.32l-0.168,-0.185l-0.236,-0.084c-3.978,-1.416 -6.65,-5.198 -6.65,-9.411l0,-14.619c0,-2.339 1.903,-4.242 4.242,-4.242l11.516,0m0,-1l-11.516,0c-2.895,0 -5.242,2.347 -5.242,5.242l0,14.619c0,4.78 3.055,8.837 7.314,10.354c0.915,1.004 2.22,1.646 3.686,1.646s2.771,-0.642 3.686,-1.647c4.259,-1.516 7.314,-5.573 7.314,-10.353l0,-14.619c0,-2.895 -2.347,-5.242 -5.242,-5.242l0,0z" />
      </g>
    </g>
    <circle fill="#36404D" r="1.357" cy="25.429" cx="36.31075" />
    <circle fill="#36404D" r="1.357" cy="25.429" cx="25.45375" />
    <g>
      <path class="hair"
        d="m42.56075,37.5c-2.786,0 -5.358,-0.999 -6.593,-1.566c1.599,-1.12 5.093,-4.142 5.093,-9.147l0,-6.904c0,-3.774 -4.073,-6.211 -4.247,-6.312l-0.446,-0.263l-0.247,0.455c-0.026,0.048 -2.695,4.82 -9.379,5.743c-3.218,0.444 -6.681,2.73 -6.681,6.698l1,0.083l-1,-0.023l0,0.522c0,5.072 3.832,8.21 5.622,9.399c-1.339,0.494 -3.901,1.315 -6.122,1.315c-3.864,0 -5.765,-1.786 -6.366,-2.493c0.807,-1.034 3.258,-4.381 3.258,-6.863c0,-1.341 -0.31,-2.886 -0.638,-4.521c-0.37,-1.851 -0.754,-3.763 -0.754,-5.623c0,-10.328 7.354,-16.5 14.464,-16.5c5.34,0 7.583,3.716 7.604,3.753l0.146,0.247l0.286,0c4.605,0 9.5,3.68 9.5,10.5c0,2.219 -0.486,4.549 -0.957,6.803c-0.408,1.955 -0.793,3.801 -0.793,5.341c0,3.088 3.11,5.84 4.412,6.857c-1.124,0.785 -3.946,2.499 -7.162,2.499z" />
      <g>
        <path class="hair"
          d="m29.52475,2c5.008,0 7.09,3.367 7.173,3.506l0.29,0.494l0.573,0c4.363,0 9,3.505 9,10c0,2.167 -0.481,4.472 -0.946,6.7c-0.413,1.981 -0.804,3.852 -0.804,5.443c0,2.921 2.545,5.52 4.071,6.816c-1.3,0.821 -3.678,2.041 -6.321,2.041c-2.202,0 -4.273,-0.65 -5.606,-1.186c1.817,-1.461 4.606,-4.45 4.606,-9.028l0,-6.904c0,-4.057 -4.31,-6.636 -4.493,-6.744l-0.894,-0.525l-0.492,0.913c-0.025,0.046 -2.546,4.592 -9.007,5.484c-3.427,0.473 -7.114,2.926 -7.114,7.194l0,0.06l0,0.522c0,4.629 3.035,7.71 5.048,9.245c-1.377,0.453 -3.326,0.969 -5.048,0.969c-3.192,0 -4.955,-1.279 -5.71,-2.023c1.022,-1.354 3.103,-4.407 3.103,-6.834c0,-1.39 -0.315,-2.959 -0.648,-4.619c-0.366,-1.826 -0.745,-3.713 -0.745,-5.524c0,-10.015 7.1,-16 13.964,-16m0,-1c-7.434,0 -14.964,6.471 -14.964,17c0,3.586 1.393,7.382 1.393,10.143s-3.393,6.857 -3.393,6.857s1.925,3 7,3c3.303,0 7.246,-1.719 7.246,-1.719s-6.246,-3.246 -6.246,-9.495c0,-0.444 0,-0.522 0,-0.522l0,0.023c0,0 0,-0.017 0,-0.083c0,-3.678 3.242,-5.788 6.25,-6.204c7.038,-0.972 9.75,-6 9.75,-6s4,2.35 4,5.882c0,1.527 0,4.397 0,6.904c0,6.13 -5.607,9.202 -5.607,9.202s3.552,2.012 7.607,2.012c4.392,0 8,-3 8,-3s-4.75,-3.254 -4.75,-6.857c0,-3.201 1.75,-7.9 1.75,-12.143c0,-7.196 -5.274,-11 -10,-11c0,0 -2.348,-4 -8.036,-4l0,0z" />
      </g>
    </g>
  </g>

</svg>
